<svg width="26" height="26" viewBox="0 0 26 26" fill="none" xmlns="http://www.w3.org/2000/svg">
<g filter="url(#filter0_d)">
<path fill-rule="evenodd" clip-rule="evenodd" d="M7 8.25C7.41421 8.25 7.75 8.58579 7.75 9V15.75H18.25V9C18.25 8.58579 18.5858 8.25 19 8.25C19.4142 8.25 19.75 8.58579 19.75 9V16.5C19.75 16.9142 19.4142 17.25 19 17.25H7C6.58579 17.25 6.25 16.9142 6.25 16.5V9C6.25 8.58579 6.58579 8.25 7 8.25Z" fill="#333333"/>
<path fill-rule="evenodd" clip-rule="evenodd" d="M4.75 5.25C4.75 4.83579 5.08579 4.5 5.5 4.5H20.5C20.9142 4.5 21.25 4.83579 21.25 5.25V9C21.25 9.41421 20.9142 9.75 20.5 9.75H5.5C5.08579 9.75 4.75 9.41421 4.75 9V5.25ZM6.25 6V8.25H19.75V6H6.25Z" fill="#333333"/>
<path fill-rule="evenodd" clip-rule="evenodd" d="M13 4.5C13.4142 4.5 13.75 4.83579 13.75 5.25V16.5C13.75 16.9142 13.4142 17.25 13 17.25C12.5858 17.25 12.25 16.9142 12.25 16.5V5.25C12.25 4.83579 12.5858 4.5 13 4.5Z" fill="#333333"/>
<path fill-rule="evenodd" clip-rule="evenodd" d="M9.625 2.25C9.32663 2.25 9.04048 2.36853 8.8295 2.5795C8.61853 2.79048 8.5 3.07663 8.5 3.375C8.5 3.67337 8.61853 3.95952 8.8295 4.1705C9.04048 4.38147 9.32663 4.5 9.625 4.5H11.9905C11.899 4.26046 11.7831 3.99706 11.6397 3.73644C11.168 2.87876 10.5204 2.25 9.625 2.25ZM13 5.25C13.7354 5.10291 13.7354 5.10266 13.7353 5.10239L13.7349 5.10028L13.7341 5.09627L13.7316 5.0842C13.7295 5.07438 13.7266 5.06104 13.7229 5.04441C13.7155 5.01118 13.7047 4.96474 13.6903 4.90697C13.6614 4.79157 13.6177 4.63007 13.5568 4.43764C13.4358 4.05549 13.2425 3.53801 12.954 3.01356C12.3945 1.99624 11.3546 0.75 9.625 0.75C8.92881 0.75 8.26113 1.02656 7.76884 1.51884C7.27656 2.01113 7 2.67881 7 3.375C7 4.07119 7.27656 4.73887 7.76884 5.23116C8.26113 5.72344 8.92881 6 9.625 6H13C13.2247 6 13.4376 5.89926 13.58 5.72549C13.7225 5.55173 13.7794 5.32272 13.7353 5.10239L13 5.25Z" fill="#333333"/>
<path fill-rule="evenodd" clip-rule="evenodd" d="M13.046 3.01356C13.6055 1.99624 14.6454 0.75 16.375 0.75C17.0712 0.75 17.7389 1.02656 18.2312 1.51884C18.7234 2.01113 19 2.67881 19 3.375C19 4.07119 18.7234 4.73887 18.2312 5.23116C17.7389 5.72344 17.0712 6 16.375 6H13C12.7753 6 12.5624 5.89926 12.42 5.72549C12.2775 5.55173 12.2205 5.32324 12.2646 5.10291L13 5.25C12.2646 5.10291 12.2645 5.10318 12.2646 5.10291L12.2648 5.10177L12.2651 5.10028L12.2659 5.09627L12.2684 5.0842C12.2705 5.07438 12.2734 5.06104 12.2771 5.04441C12.2845 5.01118 12.2953 4.96474 12.3097 4.90697C12.3386 4.79157 12.3823 4.63007 12.4432 4.43764C12.5642 4.05549 12.7575 3.53801 13.046 3.01356ZM14.0095 4.5H16.375C16.6734 4.5 16.9595 4.38147 17.1705 4.1705C17.3815 3.95952 17.5 3.67337 17.5 3.375C17.5 3.07663 17.3815 2.79048 17.1705 2.5795C16.9595 2.36853 16.6734 2.25 16.375 2.25C15.4796 2.25 14.832 2.87876 14.3603 3.73644C14.2169 3.99706 14.101 4.26046 14.0095 4.5ZM13.7352 5.39835C13.7351 5.39859 13.7351 5.39855 13.7352 5.39835V5.39835Z" fill="#333333"/>
</g>
<defs>
<filter id="filter0_d" x="0" y="0" width="26" height="26" filterUnits="userSpaceOnUse" color-interpolation-filters="sRGB">
<feFlood flood-opacity="0" result="BackgroundImageFix"/>
<feColorMatrix in="SourceAlpha" type="matrix" values="0 0 0 0 0 0 0 0 0 0 0 0 0 0 0 0 0 0 127 0"/>
<feOffset dy="4"/>
<feGaussianBlur stdDeviation="2"/>
<feColorMatrix type="matrix" values="0 0 0 0 0 0 0 0 0 0 0 0 0 0 0 0 0 0 0.25 0"/>
<feBlend mode="normal" in2="BackgroundImageFix" result="effect1_dropShadow"/>
<feBlend mode="normal" in="SourceGraphic" in2="effect1_dropShadow" result="shape"/>
</filter>
</defs>
</svg>
