<svg width="60" height="18" viewBox="0 0 60 18" fill="none" xmlns="http://www.w3.org/2000/svg">
<path d="M0 0H56C58.2091 0 60 1.79086 60 4V14C60 16.2091 58.2091 18 56 18H0V0Z" fill="#EC1F46"/>
<path d="M9.664 6.304H13.28V6.984H10.48V8.768H13.12V9.448H10.48V12H9.664V6.304ZM14.1311 6.112H14.9311V12H14.1311V6.112ZM19.8034 7.968V12H19.0034V11.312C18.8861 11.552 18.7101 11.736 18.4754 11.864C18.2461 11.992 17.9768 12.056 17.6674 12.056C17.3101 12.056 16.9954 11.9707 16.7234 11.8C16.4568 11.6293 16.2488 11.3893 16.0994 11.08C15.9501 10.7653 15.8754 10.4 15.8754 9.984C15.8754 9.568 15.9501 9.2 16.0994 8.88C16.2541 8.56 16.4674 8.312 16.7394 8.136C17.0114 7.96 17.3208 7.872 17.6674 7.872C17.9768 7.872 18.2461 7.93867 18.4754 8.072C18.7048 8.2 18.8808 8.384 19.0034 8.624V7.968H19.8034ZM17.8594 11.416C18.2221 11.416 18.5021 11.2907 18.6994 11.04C18.9021 10.784 19.0034 10.4267 19.0034 9.968C19.0034 9.504 18.9021 9.14667 18.6994 8.896C18.5021 8.64533 18.2194 8.52 17.8514 8.52C17.4888 8.52 17.2034 8.65067 16.9954 8.912C16.7928 9.168 16.6914 9.52533 16.6914 9.984C16.6914 10.4373 16.7928 10.7893 16.9954 11.04C17.2034 11.2907 17.4914 11.416 17.8594 11.416ZM22.3984 12.056C21.6944 12.056 21.1398 11.8853 20.7344 11.544L20.9744 10.96C21.3958 11.28 21.8784 11.44 22.4224 11.44C22.6998 11.44 22.9104 11.3947 23.0544 11.304C23.1984 11.208 23.2704 11.0747 23.2704 10.904C23.2704 10.76 23.2198 10.648 23.1184 10.568C23.0224 10.4827 22.8571 10.4107 22.6224 10.352L21.9504 10.192C21.5984 10.1173 21.3291 9.98667 21.1424 9.8C20.9611 9.608 20.8704 9.37067 20.8704 9.088C20.8704 8.72533 21.0144 8.432 21.3024 8.208C21.5958 7.984 21.9824 7.872 22.4624 7.872C22.7504 7.872 23.0224 7.91733 23.2784 8.008C23.5398 8.09867 23.7611 8.22667 23.9424 8.392L23.6944 8.96C23.3051 8.65067 22.8944 8.496 22.4624 8.496C22.2011 8.496 21.9984 8.54667 21.8544 8.648C21.7104 8.744 21.6384 8.88 21.6384 9.056C21.6384 9.19467 21.6838 9.30667 21.7744 9.392C21.8651 9.47733 22.0091 9.544 22.2064 9.592L22.8944 9.76C23.2784 9.84533 23.5611 9.98133 23.7424 10.168C23.9291 10.3493 24.0224 10.5867 24.0224 10.88C24.0224 11.2427 23.8758 11.5307 23.5824 11.744C23.2944 11.952 22.8998 12.056 22.3984 12.056ZM27.1188 7.872C28.0841 7.872 28.5668 8.41067 28.5668 9.488V12H27.7588V9.536C27.7588 9.184 27.6895 8.928 27.5508 8.768C27.4175 8.608 27.2015 8.528 26.9028 8.528C26.5615 8.528 26.2868 8.63467 26.0788 8.848C25.8761 9.06133 25.7748 9.34667 25.7748 9.704V12H24.9748V6.112H25.7748V8.592C25.9081 8.35733 26.0921 8.17867 26.3268 8.056C26.5615 7.93333 26.8255 7.872 27.1188 7.872ZM34.3698 12.064C33.8311 12.064 33.3618 11.9467 32.9618 11.712C32.5671 11.472 32.2605 11.1333 32.0418 10.696C31.8285 10.2587 31.7218 9.744 31.7218 9.152C31.7218 8.55467 31.8285 8.03733 32.0418 7.6C32.2551 7.16267 32.5618 6.82667 32.9618 6.592C33.3618 6.35733 33.8311 6.24 34.3698 6.24C34.9138 6.24 35.3831 6.35733 35.7778 6.592C36.1778 6.82667 36.4845 7.16267 36.6978 7.6C36.9111 8.03733 37.0178 8.552 37.0178 9.144C37.0178 9.74133 36.9111 10.2587 36.6978 10.696C36.4845 11.1333 36.1778 11.472 35.7778 11.712C35.3778 11.9467 34.9085 12.064 34.3698 12.064ZM34.3698 11.392C34.9405 11.392 35.3831 11.1973 35.6978 10.808C36.0178 10.4187 36.1778 9.864 36.1778 9.144C36.1778 8.42933 36.0178 7.88 35.6978 7.496C35.3831 7.10667 34.9405 6.912 34.3698 6.912C33.7991 6.912 33.3565 7.10667 33.0418 7.496C32.7271 7.88 32.5698 8.42933 32.5698 9.144C32.5698 9.864 32.7271 10.4187 33.0418 10.808C33.3618 11.1973 33.8045 11.392 34.3698 11.392ZM39.7882 6.76C39.3455 6.76 39.1242 7.01333 39.1242 7.52V7.968H40.0682V8.592H39.1242V12H38.3162V8.592H37.5402V7.968H38.3162V7.456C38.3162 7.008 38.4282 6.66667 38.6522 6.432C38.8815 6.19733 39.2015 6.08 39.6122 6.08C39.8255 6.08 40.0202 6.10667 40.1962 6.16V6.824C40.0522 6.78133 39.9162 6.76 39.7882 6.76ZM42.5616 6.76C42.119 6.76 41.8976 7.01333 41.8976 7.52V7.968H42.8416V8.592H41.8976V12H41.0896V8.592H40.3136V7.968H41.0896V7.456C41.0896 7.008 41.2016 6.66667 41.4256 6.432C41.655 6.19733 41.975 6.08 42.3856 6.08C42.599 6.08 42.7936 6.10667 42.9696 6.16V6.824C42.8256 6.78133 42.6896 6.76 42.5616 6.76ZM47.0633 10H44.1833C44.2099 10.944 44.6393 11.416 45.4713 11.416C45.9353 11.416 46.3593 11.264 46.7433 10.96L46.9913 11.536C46.8099 11.696 46.5779 11.824 46.2953 11.92C46.0179 12.0107 45.7379 12.056 45.4553 12.056C44.8099 12.056 44.3033 11.872 43.9353 11.504C43.5673 11.1307 43.3833 10.6213 43.3833 9.976C43.3833 9.56533 43.4633 9.2 43.6233 8.88C43.7886 8.56 44.0179 8.312 44.3113 8.136C44.6046 7.96 44.9379 7.872 45.3113 7.872C45.8553 7.872 46.2819 8.048 46.5913 8.4C46.9059 8.752 47.0633 9.24 47.0633 9.864V10ZM45.3273 8.472C45.0233 8.472 44.7753 8.56267 44.5833 8.744C44.3913 8.92533 44.2686 9.184 44.2153 9.52H46.3513C46.3193 9.17867 46.2153 8.92 46.0393 8.744C45.8633 8.56267 45.6259 8.472 45.3273 8.472ZM49.9984 7.872C50.1211 7.872 50.2491 7.89067 50.3824 7.928L50.3664 8.664C50.2224 8.61067 50.0651 8.584 49.8944 8.584C49.5264 8.584 49.2491 8.696 49.0624 8.92C48.8811 9.13867 48.7904 9.416 48.7904 9.752V12H47.9904V9.104C47.9904 8.68267 47.9691 8.304 47.9264 7.968H48.6784L48.7504 8.696C48.8571 8.42933 49.0224 8.22667 49.2464 8.088C49.4704 7.944 49.7211 7.872 49.9984 7.872Z" fill="white"/>
</svg>
